# xmcd
#
# Track frame offsets:
#	150
#	20060
#	39420
#	63325
#	82840
#	105187
#	127500
#	143617
#	165305
#	183010
#	203425
#
# Disc length: 3005 seconds
#
# Revision: 3
# Processed by: cddbd v1.5.2PL0 Copyright (c) Steve Scherf et al.
# Submitted via: audiograbber 1.83.01
#
DISCID=6f0bbb0b
DTITLE=Paul Young - No Parlez
DYEAR=1900
DGENRE=Retro
TTITLE0=Come Back And Stay
TTITLE1=Love Will Tear Us Apart
TTITLE2=Wherever I Lay My Hat (That's My Home)
TTITLE3=Ku-ku Kurama
TTITLE4=No Parlez
TTITLE5=Love Of The Common People
TTITLE6=Oh Women
TTITLE7=Iron Out The Rough Spots
TTITLE8=Broken Man
TTITLE9=Tender Trap
TTITLE10=Sex
EXTD=
EXTT0=
EXTT1=
EXTT2=
EXTT3=
EXTT4=
EXTT5=
EXTT6=
EXTT7=
EXTT8=
EXTT9=
EXTT10=
PLAYORDER=
